<svg xmlns="http://www.w3.org/2000/svg" version="1.1" xmlns:xlink="http://www.w3.org/1999/xlink" xmlns:svgjs="http://svgjs.com/svgjs" width="24" height="24"><svg xmlns="http://www.w3.org/2000/svg" width="24" height="24" version="1.0" viewBox="0 0 154 150"><path d="M66.1 3c-29.3 4-53 25.1-60.7 54-2.3 8.8-2.3 26.2 0 35 12.5 47 64.8 68.7 106.9 44.3 9.4-5.5 21.4-18.1 26.5-28 11.1-21.4 11.1-46.2.1-67.3-4.4-8.5-13.2-18.8-20.7-24.3C103.6 6 83.5.7 66.1 3zm4.5 41.2c-.4 3.5-.9 7.2-1.2 8.4-.4 1.7.2 2.3 3.3 3.2 2.1.6 6.5 2.7 9.7 4.7 3.2 1.9 6 3.4 6.2 3.2 1.5-1.5 6.6-13.8 8-19l1.6-6.7h5.9c5.5 0 5.9.2 5.9 2.2 0 6.6-6.2 22.3-12.2 30.8-.8 1.3-.1 2.9 3.2 7.5 4.4 6.3 8.9 15.5 12.1 24.4 2.8 8 2.8 8.1-4.1 8.1-5.7 0-6.1-.2-7.1-2.8-4.6-12.4-6.4-16.5-9.5-21.5L88.8 81l-2.6 1.9c-4.8 3.3-11.1 6.1-17 7.5l-5.7 1.3-1.4 9.6-1.4 9.7H47.9l.5-3.3c.3-1.7 1.1-6 1.6-9.5 1.2-6.6.8-8.2-1.7-8.2-3.5 0-11.5-5.5-13.9-9.5-7-11.9 1.3-24.6 17.7-27l4.7-.7.6-5.1c1.3-10 1.1-9.7 7.8-9.7h6.1l-.7 6.2z"></path><path d="M48 66.8c-2.7 1.3-3.6 2.4-3.8 4.9-.3 3.3 1.6 5.3 6.4 6.7 1.9.6 2.2.2 2.9-4.1.3-2.6.9-5.8 1.2-7.1.7-2.8-1.7-2.9-6.7-.4zM66.4 72.6c-.7 4.4-.7 6.4 0 6.4.6 0 4-1.4 7.6-3.1l6.4-3-3-1.9c-1.6-1.1-4.6-2.6-6.5-3.4l-3.6-1.5-.9 6.5z"></path></svg><style>@media (prefers-color-scheme: light) { :root { filter: none; } }
</style></svg>