<svg xmlns="http://www.w3.org/2000/svg" viewBox="0 0 52.09 52.09"><defs><style>.cls-1{fill:#2c3030;}.cls-2{fill:#fffc8d;}</style></defs><g id="Слой_2" data-name="Слой 2"><g id="Слой_1-2" data-name="Слой 1"><circle class="cls-1" cx="26.05" cy="26.05" r="26.05" transform="translate(-1.78 50.18) rotate(-85.93)"/><path class="cls-2" d="M35.21,16.44,16.44,35.2l1.23,1.23L36.43,17.67ZM16.44,35.2a.87.87,0,0,0,1.23,1.23Zm20-17.53a.87.87,0,0,0,0-1.23.86.86,0,0,0-1.22,0Z"/><path class="cls-2" d="M16.44,16.89,35.21,35.65l1.22-1.23L17.67,15.66ZM35.21,35.65a.86.86,0,0,0,1.22,0,.87.87,0,0,0,0-1.23Zm-17.54-20a.87.87,0,1,0-1.23,1.23Z"/></g></g></svg>