<svg width="45" height="45" viewBox="0 0 45 45" fill="none" xmlns="http://www.w3.org/2000/svg">
<path d="M22.5 45C34.9264 45 45 34.9264 45 22.5C45 10.0736 34.9264 0 22.5 0C10.0736 0 0 10.0736 0 22.5C0 34.9264 10.0736 45 22.5 45Z" fill="#2C3030"/>
<path d="M14.2037 14.5873L30.4068 30.7903L31.4695 29.7276L15.2664 13.5246L14.2037 14.5873ZM30.4068 30.7903C30.4765 30.8601 30.5594 30.9154 30.6506 30.9532C30.7417 30.991 30.8394 31.0104 30.9381 31.0104C31.0368 31.0104 31.1345 30.991 31.2257 30.9532C31.3168 30.9154 31.3997 30.8601 31.4695 30.7903C31.5392 30.7205 31.5946 30.6377 31.6324 30.5465C31.6701 30.4554 31.6896 30.3576 31.6896 30.259C31.6896 30.1603 31.6701 30.0626 31.6324 29.9714C31.5946 29.8802 31.5392 29.7974 31.4695 29.7276L30.4068 30.7903ZM15.2664 13.5246C15.1966 13.4548 15.1138 13.3994 15.0226 13.3617C14.9315 13.3239 14.8337 13.3045 14.7351 13.3045C14.6364 13.3045 14.5387 13.3239 14.4475 13.3617C14.3563 13.3994 14.2735 13.4548 14.2037 13.5246C14.1339 13.5943 14.0786 13.6772 14.0408 13.7683C14.0031 13.8595 13.9836 13.9572 13.9836 14.0559C13.9836 14.1546 14.0031 14.2523 14.0408 14.3435C14.0786 14.4346 14.1339 14.5175 14.2037 14.5873L15.2664 13.5246Z" fill="#FFFC8D"/>
<path d="M14.5882 30.7906L30.7912 14.5876L29.7285 13.5249L13.5255 29.7279L14.5882 30.7906ZM30.7912 14.5876C30.9322 14.4466 31.0113 14.2555 31.0113 14.0562C31.0113 13.8569 30.9322 13.6658 30.7912 13.5249C30.6503 13.3839 30.4592 13.3048 30.2599 13.3048C30.0606 13.3048 29.8695 13.3839 29.7285 13.5249L30.7912 14.5876ZM13.5255 29.7279C13.3846 29.8689 13.3054 30.06 13.3054 30.2593C13.3054 30.4586 13.3846 30.6497 13.5255 30.7906C13.6664 30.9315 13.8575 31.0107 14.0568 31.0107C14.2561 31.0107 14.4473 30.9315 14.5882 30.7906L13.5255 29.7279Z" fill="#FFFC8D"/>
</svg>
