<?xml version="1.0" standalone="no"?>
<!DOCTYPE svg PUBLIC "-//W3C//DTD SVG 20010904//EN"
 "http://www.w3.org/TR/2001/REC-SVG-20010904/DTD/svg10.dtd">
<svg version="1.0" xmlns="http://www.w3.org/2000/svg"
 width="194.000000pt" height="191.000000pt" viewBox="0 0 194.000000 191.000000"
 preserveAspectRatio="xMidYMid meet">

<g transform="translate(0.000000,191.000000) scale(0.100000,-0.100000)"
fill="#868686" stroke="none">
<path d="M830 1880 c-449 -59 -800 -465 -800 -926 0 -513 421 -934 935 -934
152 0 273 29 418 101 238 117 401 314 483 584 24 82 27 105 27 250 0 145 -3
168 -27 250 -98 324 -331 557 -649 649 -99 29 -277 41 -387 26z m388 -392 c15
-15 16 -142 2 -169 -9 -16 -22 -19 -72 -19 -83 0 -98 -14 -98 -91 l0 -58 83
-3 82 -3 3 -74 c4 -106 -8 -121 -98 -121 l-70 0 -2 -267 -3 -268 -110 0 -110
0 -5 265 -5 265 -45 5 c-68 8 -70 11 -70 105 0 92 2 95 70 95 47 0 50 7 50
111 0 119 30 173 120 216 32 16 65 20 176 22 58 0 94 -3 102 -11z"/>
</g>
</svg>
