<?xml version="1.0" standalone="no"?>
<!DOCTYPE svg PUBLIC "-//W3C//DTD SVG 20010904//EN"
 "http://www.w3.org/TR/2001/REC-SVG-20010904/DTD/svg10.dtd">
<svg version="1.0" xmlns="http://www.w3.org/2000/svg"
 width="192.000000pt" height="192.000000pt" viewBox="0 0 192.000000 192.000000"
 preserveAspectRatio="xMidYMid meet">

<g transform="translate(0.000000,192.000000) scale(0.100000,-0.100000)"
fill="#868686" stroke="none">
<path d="M830 1880 c-127 -17 -280 -76 -393 -152 -60 -41 -170 -145 -225 -213
-36 -45 -137 -244 -147 -290 -3 -16 -11 -52 -18 -80 -15 -65 -15 -315 0 -380
7 -27 15 -63 18 -80 14 -65 114 -251 172 -320 283 -336 732 -439 1122 -257
149 69 293 193 380 327 46 71 59 94 92 170 26 62 50 159 60 250 26 216 -28
435 -154 625 -38 58 -158 181 -222 229 -147 110 -314 168 -507 175 -62 3 -142
1 -178 -4z m482 -408 c66 -29 129 -91 161 -156 l27 -55 0 -285 c0 -319 -3
-335 -75 -415 -90 -99 -137 -111 -444 -111 -263 0 -293 4 -373 53 -66 40 -109
98 -137 186 -15 48 -15 521 1 575 25 86 130 206 180 206 8 0 18 4 24 9 15 16
77 19 339 17 231 -2 254 -4 297 -24z"/>
<path d="M715 1383 c-42 -11 -94 -55 -124 -104 -20 -32 -21 -49 -21 -305 l0
-270 29 -46 c17 -27 48 -57 74 -72 l44 -26 260 0 c204 0 268 3 295 14 46 20
104 85 117 133 15 51 14 486 0 538 -15 52 -82 119 -134 134 -40 11 -498 14
-540 4z m589 -105 c21 -30 20 -54 -4 -78 -26 -26 -64 -25 -90 2 -38 41 -13 98
45 98 24 0 39 -7 49 -22z m-230 -68 c61 -23 125 -85 151 -146 8 -20 15 -65 15
-103 0 -55 -5 -75 -30 -118 -71 -123 -214 -168 -340 -105 -162 80 -194 293
-62 418 42 40 120 73 174 73 21 1 62 -8 92 -19z"/>
<path d="M946 1123 c-16 -3 -47 -23 -72 -49 -42 -41 -44 -46 -44 -102 0 -103
66 -167 166 -159 65 4 105 33 134 94 20 43 21 53 11 93 -24 88 -100 137 -195
123z"/>
</g>
</svg>
