<svg width="36" height="36" viewBox="0 0 36 36" fill="none" xmlns="http://www.w3.org/2000/svg">
<path fill-rule="evenodd" clip-rule="evenodd" d="M0 10C0 4.47715 4.47715 0 10 0H26C31.5228 0 36 4.47715 36 10V26C36 31.5228 31.5228 36 26 36H10C4.47715 36 0 31.5228 0 26V10ZM25.7143 18C25.7143 22.2605 22.2605 25.7143 18 25.7143C13.7395 25.7143 10.2857 22.2605 10.2857 18C10.2857 13.7395 13.7395 10.2857 18 10.2857C22.2605 10.2857 25.7143 13.7395 25.7143 18ZM27.2571 11.3143C28.6773 11.3143 29.8286 10.163 29.8286 8.74286C29.8286 7.3227 28.6773 6.17143 27.2571 6.17143C25.837 6.17143 24.6857 7.3227 24.6857 8.74286C24.6857 10.163 25.837 11.3143 27.2571 11.3143Z" fill="#2C3030"/>
</svg>
