<?xml version="1.0" standalone="no"?>
<!DOCTYPE svg PUBLIC "-//W3C//DTD SVG 20010904//EN"
 "http://www.w3.org/TR/2001/REC-SVG-20010904/DTD/svg10.dtd">
<svg version="1.0" xmlns="http://www.w3.org/2000/svg"
 width="195.000000pt" height="194.000000pt" viewBox="0 0 195.000000 194.000000"
 preserveAspectRatio="xMidYMid meet">

<g transform="translate(0.000000,194.000000) scale(0.100000,-0.100000)"
fill="#868686" stroke="none">
<path d="M895 1914 c-102 -14 -181 -32 -240 -54 -222 -84 -411 -252 -513 -456
-137 -271 -135 -586 4 -855 89 -172 237 -315 421 -408 137 -68 220 -86 408
-86 185 0 271 18 404 84 250 124 427 338 502 606 19 68 22 105 22 240 0 145
-3 168 -27 250 -80 266 -262 479 -506 593 -74 35 -94 42 -205 67 -64 15 -221
26 -270 19z m-251 -369 c87 -42 88 -168 0 -210 -50 -24 -101 -14 -136 25 -48
53 -49 103 -3 159 35 41 86 51 139 26z m711 -312 c49 -25 93 -73 115 -127 19
-48 20 -68 18 -286 l-3 -235 -99 -3 c-73 -2 -102 1 -108 10 -4 7 -8 101 -8
209 0 187 -1 198 -23 230 -30 45 -79 58 -129 35 -61 -29 -68 -57 -68 -273 0
-134 -4 -193 -12 -201 -16 -16 -190 -16 -206 0 -17 17 -17 619 0 636 8 8 47
12 109 12 l97 0 11 -32 11 -31 23 20 c27 25 63 44 102 54 40 10 133 0 170 -18z
m-662 5 c16 -12 17 -41 15 -333 l-3 -320 -105 0 -105 0 -3 327 c-3 374 -15
335 109 337 46 1 82 -4 92 -11z"/>
</g>
</svg>
