<?xml version="1.0" standalone="no"?>
<!DOCTYPE svg PUBLIC "-//W3C//DTD SVG 20010904//EN"
 "http://www.w3.org/TR/2001/REC-SVG-20010904/DTD/svg10.dtd">
<svg version="1.0" xmlns="http://www.w3.org/2000/svg"
 width="295.000000pt" height="108.000000pt" viewBox="0 0 295.000000 108.000000"
 preserveAspectRatio="xMidYMid meet">

<g transform="translate(0.000000,108.000000) scale(0.100000,-0.100000)"
fill="#000000" stroke="none">
<path d="M355 968 c-5 -24 -25 -148 -25 -159 0 -3 -27 -9 -61 -13 -112 -11
-201 -68 -240 -151 -26 -56 -24 -111 7 -174 32 -64 87 -106 166 -128 50 -14
57 -19 53 -37 -2 -12 -9 -57 -15 -101 -6 -44 -13 -92 -16 -108 l-6 -27 76 0
c41 0 77 3 79 8 3 4 13 59 22 122 9 63 18 116 19 118 2 1 29 7 62 13 67 13
172 57 222 96 l35 26 18 -24 c43 -57 85 -137 116 -222 56 -152 42 -137 129
-137 l76 0 -6 33 c-17 93 -115 298 -187 394 -21 29 -39 54 -39 56 0 2 22 40
48 84 48 80 105 230 118 311 l7 43 -78 -3 -77 -3 -19 -73 c-20 -78 -46 -143
-85 -209 l-24 -42 -45 30 c-38 26 -135 74 -186 92 -14 5 -15 14 -3 94 8 48 14
94 14 101 0 8 -22 12 -75 12 -69 0 -75 -2 -80 -22z m-61 -399 c-8 -45 -15 -86
-16 -90 -4 -11 -76 16 -99 37 -25 23 -25 75 1 99 19 17 109 46 121 39 3 -2 0
-40 -7 -85z m269 28 c32 -16 56 -35 54 -41 -5 -15 -80 -56 -133 -72 -52 -15
-52 -15 -33 93 13 73 12 73 112 20z"/>
<path d="M1200 535 l0 -455 83 0 82 0 245 337 245 337 3 -337 2 -337 80 0 80
0 0 455 0 455 -83 0 -83 0 -244 -336 -245 -336 -3 336 -2 336 -80 0 -80 0 0
-455z"/>
<path d="M2150 920 l0 -70 150 0 150 0 0 -385 0 -385 80 0 80 0 0 385 0 385
145 0 145 0 0 70 0 70 -375 0 -375 0 0 -70z"/>
</g>
</svg>
