<svg xmlns="http://www.w3.org/2000/svg" viewBox="0 0 52.09 52.09"><defs><style>.cls-1{fill:#2c3030;}.cls-2{fill:#fffc8d;}</style></defs><g id="Слой_2" data-name="Слой 2"><g id="Слой_1-2" data-name="Слой 1"><circle class="cls-1" cx="26.05" cy="26.05" r="26.05" transform="translate(-10.51 30.55) rotate(-52.02)"/><polyline class="cls-1" points="12.96 21.16 26.02 34.22 39.07 21.16"/><path class="cls-2" d="M26.63,34.83l13.05-13-1.22-1.23L25.4,33.6Zm-14.28-13,13.05,13,1.23-1.23-13-13Zm27.33,0a.87.87,0,0,0,0-1.23.86.86,0,0,0-1.22,0ZM26,34.22l-.62.61.62.61.61-.61ZM13.58,20.55a.87.87,0,1,0-1.23,1.23Z"/></g></g></svg>