<svg aria-hidden="true" style="position: absolute; width: 0; height: 0; overflow: hidden;" version="1.1" xmlns="http://www.w3.org/2000/svg" xmlns:xlink="http://www.w3.org/1999/xlink">
<defs>

<symbol id="open" viewBox="0 0 32 32">
<path fill="#2c3030" style="fill: var(--color2, #2c3030)" d="M25.854 3.388c6.967 5.439 8.205 15.496 2.766 22.462s-15.496 8.205-22.462 2.766c-6.967-5.439-8.205-15.496-2.766-22.462s15.496-8.205 22.462-2.766z"></path>
<path fill="#2c3030" style="fill: var(--color2, #2c3030)" d="M7.962 12.999l8.023 8.023 8.017-8.023z"></path>
<path fill="#fffc8d" style="fill: var(--color3, #fffc8d)" d="M16.359 21.397l8.017-7.986-0.749-0.756-8.023 7.986zM7.587 13.411l8.017 7.986 0.756-0.756-7.986-7.986zM24.376 13.411c0.097-0.097 0.156-0.23 0.156-0.378s-0.060-0.281-0.156-0.378v0c-0.096-0.096-0.228-0.156-0.375-0.156s-0.279 0.060-0.375 0.156l-0 0zM15.972 21.022l-0.381 0.375 0.381 0.375 0.375-0.375zM8.342 12.624c-0.098-0.102-0.235-0.166-0.387-0.166-0.295 0-0.534 0.239-0.534 0.534 0 0.152 0.064 0.29 0.166 0.387l0 0z"></path>
</symbol>

<symbol id="close" viewBox="0 0 32 32">
<path d="M16 32c8.837 0 16-7.163 16-16s-7.163-16-16-16c-8.837 0-16 7.163-16 16s7.163 16 16 16z"></path>
<path fill="#fffc8d"  d="M10.1 10.373l11.522 11.522 0.756-0.756-11.522-11.522-0.756 0.756zM21.623 21.895c0.050 0.050 0.108 0.089 0.173 0.116s0.134 0.041 0.204 0.041 0.14-0.014 0.204-0.041c0.065-0.027 0.124-0.066 0.173-0.116s0.089-0.108 0.116-0.173c0.027-0.065 0.041-0.134 0.041-0.204s-0.014-0.14-0.041-0.204c-0.027-0.065-0.066-0.124-0.116-0.173l-0.756 0.756zM10.856 9.617c-0.050-0.050-0.108-0.089-0.173-0.116s-0.134-0.041-0.204-0.041c-0.070 0-0.14 0.014-0.204 0.041s-0.124 0.066-0.173 0.116c-0.050 0.050-0.089 0.108-0.116 0.173s-0.041 0.134-0.041 0.204 0.014 0.14 0.041 0.204c0.027 0.065 0.066 0.124 0.116 0.173l0.756-0.756z"></path>
<path fill="#fffc8d"  d="M10.374 21.896l11.522-11.522-0.756-0.756-11.522 11.522 0.756 0.756zM21.896 10.373c0.1-0.1 0.157-0.236 0.157-0.378s-0.056-0.278-0.157-0.378c-0.1-0.1-0.236-0.156-0.378-0.156s-0.278 0.056-0.378 0.156l0.756 0.756zM9.618 21.14c-0.1 0.1-0.156 0.236-0.156 0.378s0.056 0.278 0.156 0.378c0.1 0.1 0.236 0.157 0.378 0.157s0.278-0.056 0.378-0.157l-0.756-0.756z"></path>
</symbol>

<symbol id='telegram-s' viewBox="0 0 36 36" fill="none" xmlns="http://www.w3.org/2000/svg">
<path d="M7.67571 19.1508L0.999075 17.0942C-0.276581 16.7013 -0.34923 15.0145 0.888382 14.524L36.994 0.216457C39.1074 -0.621015 41.3586 1.09573 40.952 3.23475L35.9134 29.7415C35.5416 31.6973 33.17 32.6405 31.4401 31.5204L18.5742 23.19C17.441 22.4562 17.3018 20.9205 18.2865 20.0139L30.498 8.771C30.8106 8.48314 30.4185 8.01323 30.0516 8.23609L13.1889 18.4787C11.5497 19.4744 9.52683 19.721 7.67571 19.1508Z" fill="#2C3030"/>
</symbol>

<symbol id='instagram-s' viewBox="0 0 36 36" fill="none" xmlns="http://www.w3.org/2000/svg">
<path fill-rule="evenodd" clip-rule="evenodd" d="M0 10C0 4.47715 4.47715 0 10 0H26C31.5228 0 36 4.47715 36 10V26C36 31.5228 31.5228 36 26 36H10C4.47715 36 0 31.5228 0 26V10ZM25.7143 18C25.7143 22.2605 22.2605 25.7143 18 25.7143C13.7395 25.7143 10.2857 22.2605 10.2857 18C10.2857 13.7395 13.7395 10.2857 18 10.2857C22.2605 10.2857 25.7143 13.7395 25.7143 18ZM27.2571 11.3143C28.6773 11.3143 29.8286 10.163 29.8286 8.74286C29.8286 7.3227 28.6773 6.17143 27.2571 6.17143C25.837 6.17143 24.6857 7.3227 24.6857 8.74286C24.6857 10.163 25.837 11.3143 27.2571 11.3143Z" fill="#2C3030"/>
</symbol>

<symbol id="icon-telegram" viewBox="0 0 32 32">
<path d="M11.385 1.323c-5.015 1.723-8.554 5.2-10.154 10.062-0.554 1.692-0.646 2.554-0.554 5.385 0.092 3.138 0.185 3.569 1.2 5.692 4.308 9.046 15.354 11.877 23.323 6 3.754-2.769 5.846-6.708 6.123-11.415 0.185-3.385-0.246-5.354-1.723-8.215-3.385-6.523-11.415-9.846-18.215-7.508zM23.508 9.723c0.277 0.246 0.492 0.492 0.492 0.523s-0.554 2.923-1.2 6.462c-1.169 6.185-1.508 7.292-2.338 7.292-0.769 0-6.923-4.277-6.923-4.831 0-0.277 1.292-1.754 2.862-3.262 2.985-2.892 2.862-2.892-1.662-0.031-3.969 2.523-4.462 2.646-7.2 1.692-2.831-0.985-2.431-1.292 6.462-4.985 4.4-1.815 8.246-3.292 8.523-3.323s0.738 0.185 0.985 0.462z"></path>
</symbol>

<symbol id="icon-instagram" viewBox="0 0 32 32">
<path d="M13.833 0.667c-2.117 0.283-4.667 1.267-6.55 2.533-1 0.683-2.833 2.417-3.75 3.55-0.6 0.75-2.283 4.067-2.45 4.833-0.050 0.267-0.183 0.867-0.3 1.333-0.25 1.083-0.25 5.25 0 6.333 0.117 0.45 0.25 1.050 0.3 1.333 0.233 1.083 1.9 4.183 2.867 5.333 4.717 5.6 12.2 7.317 18.7 4.283 2.483-1.15 4.883-3.217 6.333-5.45 0.767-1.183 0.983-1.567 1.533-2.833 0.433-1.033 0.833-2.65 1-4.167 0.433-3.6-0.467-7.25-2.567-10.417-0.633-0.967-2.633-3.017-3.7-3.817-2.45-1.833-5.233-2.8-8.45-2.917-1.033-0.050-2.367-0.017-2.967 0.067zM21.867 7.467c1.1 0.483 2.15 1.517 2.683 2.6l0.45 0.917v4.75c0 5.317-0.050 5.583-1.25 6.917-1.5 1.65-2.283 1.85-7.4 1.85-4.383 0-4.883-0.067-6.217-0.883-1.1-0.667-1.817-1.633-2.283-3.1-0.25-0.8-0.25-8.683 0.017-9.583 0.417-1.433 2.167-3.433 3-3.433 0.133 0 0.3-0.067 0.4-0.15 0.25-0.267 1.283-0.317 5.65-0.283 3.85 0.033 4.233 0.067 4.95 0.4z"></path>
<path d="M11.917 8.95c-0.7 0.183-1.567 0.917-2.067 1.733-0.333 0.533-0.35 0.817-0.35 5.083v4.5l0.483 0.767c0.283 0.45 0.8 0.95 1.233 1.2l0.733 0.433h4.333c3.4 0 4.467-0.050 4.917-0.233 0.767-0.333 1.733-1.417 1.95-2.217 0.25-0.85 0.233-8.1 0-8.967-0.25-0.867-1.367-1.983-2.233-2.233-0.667-0.183-8.3-0.233-9-0.067zM21.733 10.7c0.35 0.5 0.333 0.9-0.067 1.3-0.433 0.433-1.067 0.417-1.5-0.033-0.633-0.683-0.217-1.633 0.75-1.633 0.4 0 0.65 0.117 0.817 0.367zM17.9 11.833c1.017 0.383 2.083 1.417 2.517 2.433 0.133 0.333 0.25 1.083 0.25 1.717 0 0.917-0.083 1.25-0.5 1.967-1.183 2.050-3.567 2.8-5.667 1.75-2.7-1.333-3.233-4.883-1.033-6.967 0.7-0.667 2-1.217 2.9-1.217 0.35-0.017 1.033 0.133 1.533 0.317z"></path>
<path d="M15.767 13.283c-0.267 0.050-0.783 0.383-1.2 0.817-0.7 0.683-0.733 0.767-0.733 1.7 0 1.717 1.1 2.783 2.767 2.65 1.083-0.067 1.75-0.55 2.233-1.567 0.333-0.717 0.35-0.883 0.183-1.55-0.4-1.467-1.667-2.283-3.25-2.050z"></path>
</symbol>

<symbol id="logo" viewBox="0 0 87 32">
<path d="M10.519 3.319c-0.148 0.711-0.741 4.385-0.741 4.711 0 0.089-0.8 0.267-1.807 0.385-3.319 0.326-5.956 2.015-7.111 4.474-0.77 1.659-0.711 3.289 0.207 5.156 0.948 1.896 2.578 3.141 4.919 3.793 1.481 0.415 1.689 0.563 1.57 1.096-0.059 0.356-0.267 1.689-0.444 2.993s-0.385 2.726-0.474 3.2l-0.178 0.8h2.252c1.215 0 2.281-0.089 2.341-0.237 0.089-0.119 0.385-1.748 0.652-3.615s0.533-3.437 0.563-3.496c0.059-0.030 0.859-0.207 1.837-0.385 1.985-0.385 5.096-1.689 6.578-2.844l1.037-0.77 0.533 0.711c1.274 1.689 2.519 4.059 3.437 6.578 1.659 4.504 1.244 4.059 3.822 4.059h2.252l-0.178-0.978c-0.504-2.756-3.407-8.83-5.541-11.674-0.622-0.859-1.156-1.6-1.156-1.659s0.652-1.185 1.422-2.489c1.422-2.37 3.111-6.815 3.496-9.215l0.207-1.274-4.593 0.178-0.563 2.163c-0.593 2.311-1.363 4.237-2.519 6.193l-0.711 1.244-1.333-0.889c-1.126-0.77-4-2.193-5.511-2.726-0.415-0.148-0.444-0.415-0.089-2.785 0.237-1.422 0.415-2.785 0.415-2.993 0-0.237-0.652-0.356-2.222-0.356-2.044 0-2.222 0.059-2.37 0.652zM8.711 15.141c-0.237 1.333-0.444 2.548-0.474 2.667-0.119 0.326-2.252-0.474-2.933-1.096-0.741-0.681-0.741-2.222 0.030-2.933 0.563-0.504 3.23-1.363 3.585-1.156 0.089 0.059 0 1.185-0.207 2.519zM16.681 14.311c0.948 0.474 1.659 1.037 1.6 1.215-0.148 0.444-2.37 1.659-3.941 2.133-1.541 0.444-1.541 0.444-0.978-2.756 0.385-2.163 0.356-2.163 3.319-0.593z"></path>
<path d="M35.556 16.148v13.481h4.889l14.519-19.97 0.089 9.985 0.059 9.985h4.741v-26.963h-4.919l-7.23 9.956-7.259 9.956-0.089-9.956-0.059-9.956h-4.741v13.481z"></path>
<path d="M63.704 4.741v2.074h8.889v22.815h4.741v-22.815h8.593v-4.148h-22.222v2.074z"></path>
</symbol>

<symbol id="call"  viewBox="0 0 24 28">
<path d="M1.4877 21.3429C1.57256 21.27 4.73605 18.4966 5.32122 18.0897C5.56018 17.9238 5.81858 17.7551 6.11987 17.6743C6.61205 17.5425 7.09129 17.6772 7.54259 18.0732C8.05186 18.5174 9.49967 19.5119 9.94348 19.8059C10.0016 19.8449 10.0786 19.8894 10.1149 19.8796C10.1476 19.8709 10.6494 19.4872 10.8002 19.3672C14.2547 16.6192 16.127 11.7353 16.3492 10.9367C16.3807 10.822 16.3711 10.7764 16.3716 10.7763C16.3432 10.7276 16.1764 10.6309 16.0903 10.581C15.8391 10.4375 15.5545 10.236 15.2793 10.041C15.1489 9.94861 15.0183 9.8561 14.8914 9.76994C14.4952 9.49919 14.2876 9.2622 14.0471 8.98773L13.9214 8.84532C13.3381 8.1905 13.492 7.46479 13.5418 7.23043C13.5817 7.03476 14.1244 2.904 14.1834 2.4695C14.3243 1.42139 14.7266 0.843159 15.4491 0.649558C15.5162 0.631594 15.4491 0.649558 15.7335 0.586085C16.0797 0.508815 18.0099 0.254967 18.9736 0.554264C19.9955 0.871732 21.9456 2.23408 22.7743 5.32682C23.5201 8.11032 22.4598 11.2113 21.97 12.4138C21.958 12.444 21.9371 12.5045 21.9066 12.5914C20.1418 17.6104 17.3673 21.723 14.0936 24.1717C10.942 26.529 9.3142 27.14 8.36393 27.3947L8.36376 27.3947C7.96443 27.5017 7.6364 27.556 7.34699 27.6038L7.16354 27.6346C5.91512 27.8531 2.86293 27.1811 1.79902 25.6487C0.960974 24.4418 0.443345 23.0165 0.620904 22.4013C0.743235 21.9825 1.07178 21.7003 1.4877 21.3429Z" />
</symbol>

</defs>
</svg>
