<svg aria-hidden="true" style="position: absolute; width: 0; height: 0; overflow: hidden;" version="1.1" xmlns="http://www.w3.org/2000/svg" xmlns:xlink="http://www.w3.org/1999/xlink">
<defs>


<symbol id='inst' width="36" height="36" viewBox="0 0 36 36" fill="none" xmlns="http://www.w3.org/2000/svg">
<path fill-rule="evenodd" clip-rule="evenodd" d="M0 10C0 4.47715 4.47715 0 10 0H26C31.5228 0 36 4.47715 36 10V26C36 31.5228 31.5228 36 26 36H10C4.47715 36 0 31.5228 0 26V10ZM25.7143 18C25.7143 22.2605 22.2605 25.7143 18 25.7143C13.7395 25.7143 10.2857 22.2605 10.2857 18C10.2857 13.7395 13.7395 10.2857 18 10.2857C22.2605 10.2857 25.7143 13.7395 25.7143 18ZM27.2571 11.3143C28.6773 11.3143 29.8286 10.163 29.8286 8.74286C29.8286 7.3227 28.6773 6.17143 27.2571 6.17143C25.837 6.17143 24.6857 7.3227 24.6857 8.74286C24.6857 10.163 25.837 11.3143 27.2571 11.3143Z" fill="#2C3030"/>
</symbol>

<symbol id="telegram" version="1.0" xmlns="http://www.w3.org/2000/svg"
 width="104.000000pt" height="104.000000pt" viewBox="0 0 104.000000 104.000000"
 preserveAspectRatio="xMidYMid meet">

<g transform="translate(0.000000,104.000000) scale(0.100000,-0.100000)"
fill="#2c3030" stroke="none">
<path d="M370 997 c-163 -56 -278 -169 -330 -327 -18 -55 -21 -83 -18 -175 3
-102 6 -116 39 -185 140 -294 499 -386 758 -195 122 90 190 218 199 371 6 110
-8 174 -56 267 -110 212 -371 320 -592 244z m394 -273 c9 -8 16 -16 16 -17 0
-1 -18 -95 -39 -210 -38 -201 -49 -237 -76 -237 -25 0 -225 139 -225 157 0 9
42 57 93 106 97 94 93 94 -54 1 -129 -82 -145 -86 -234 -55 -92 32 -79 42 210
162 143 59 268 107 277 108 9 1 24 -6 32 -15z"/>
</g>
</symbol>

<symbol id='telegram-s' width="31" height="22" viewBox="0 0 41 32" fill="none" xmlns="http://www.w3.org/2000/svg">
<path d="M7.67571 19.1508L0.999075 17.0942C-0.276581 16.7013 -0.34923 15.0145 0.888382 14.524L36.994 0.216457C39.1074 -0.621015 41.3586 1.09573 40.952 3.23475L35.9134 29.7415C35.5416 31.6973 33.17 32.6405 31.4401 31.5204L18.5742 23.19C17.441 22.4562 17.3018 20.9205 18.2865 20.0139L30.498 8.771C30.8106 8.48314 30.4185 8.01323 30.0516 8.23609L13.1889 18.4787C11.5497 19.4744 9.52683 19.721 7.67571 19.1508Z" fill="#2C3030"/>
</symbol>

<symbol id='instagram-s' width="36" height="36" viewBox="0 0 36 36" fill="none" xmlns="http://www.w3.org/2000/svg">
<path  d="M0 10C0 4.47715 4.47715 0 10 0H26C31.5228 0 36 4.47715 36 10V26C36 31.5228 31.5228 36 26 36H10C4.47715 36 0 31.5228 0 26V10ZM25.7143 18C25.7143 22.2605 22.2605 25.7143 18 25.7143C13.7395 25.7143 10.2857 22.2605 10.2857 18C10.2857 13.7395 13.7395 10.2857 18 10.2857C22.2605 10.2857 25.7143 13.7395 25.7143 18ZM27.2571 11.3143C28.6773 11.3143 29.8286 10.163 29.8286 8.74286C29.8286 7.3227 28.6773 6.17143 27.2571 6.17143C25.837 6.17143 24.6857 7.3227 24.6857 8.74286C24.6857 10.163 25.837 11.3143 27.2571 11.3143Z" fill="#2C3030"/>
</symbol>





</defs>
</svg>
