<svg aria-hidden="true" style="position: absolute; width: 0; height: 0; overflow: hidden;" version="1.1" xmlns="http://www.w3.org/2000/svg" xmlns:xlink="http://www.w3.org/1999/xlink">
<defs>
<symbol id="icon-inst-s" viewBox="0 0 32 32">
<path d="M0 8.889c0-4.909 3.98-8.889 8.889-8.889h14.222c4.909 0 8.889 3.98 8.889 8.889v14.222c0 4.909-3.98 8.889-8.889 8.889h-14.222c-4.909 0-8.889-3.98-8.889-8.889v-14.222zM22.857 16c0 3.787-3.070 6.857-6.857 6.857s-6.857-3.070-6.857-6.857c0-3.787 3.070-6.857 6.857-6.857s6.857 3.070 6.857 6.857zM24.229 10.057c1.262 0 2.286-1.023 2.286-2.286s-1.023-2.286-2.286-2.286c-1.262 0-2.286 1.023-2.286 2.286s1.023 2.286 2.286 2.286z"></path>
</symbol>
<symbol id="icon-close" viewBox="0 0 32 32">
<path fill="#2c3030" style="fill: var(--color1, #2c3030)" d="M16 32c8.837 0 16-7.163 16-16s-7.163-16-16-16c-8.837 0-16 7.163-16 16s7.163 16 16 16z"></path>
<path fill="#fffc8d" style="fill: var(--color2, #fffc8d)" d="M10.1 10.373l11.522 11.522 0.756-0.756-11.522-11.522-0.756 0.756zM21.623 21.895c0.050 0.050 0.108 0.089 0.173 0.116s0.134 0.041 0.204 0.041 0.14-0.014 0.204-0.041c0.065-0.027 0.124-0.066 0.173-0.116s0.089-0.108 0.116-0.173c0.027-0.065 0.041-0.134 0.041-0.204s-0.014-0.14-0.041-0.204c-0.027-0.065-0.066-0.124-0.116-0.173l-0.756 0.756zM10.856 9.617c-0.050-0.050-0.108-0.089-0.173-0.116s-0.134-0.041-0.204-0.041c-0.070 0-0.14 0.014-0.204 0.041s-0.124 0.066-0.173 0.116c-0.050 0.050-0.089 0.108-0.116 0.173s-0.041 0.134-0.041 0.204 0.014 0.14 0.041 0.204c0.027 0.065 0.066 0.124 0.116 0.173l0.756-0.756z"></path>
<path fill="#fffc8d" style="fill: var(--color2, #fffc8d)" d="M10.374 21.896l11.522-11.522-0.756-0.756-11.522 11.522 0.756 0.756zM21.896 10.373c0.1-0.1 0.157-0.236 0.157-0.378s-0.056-0.278-0.157-0.378c-0.1-0.1-0.236-0.156-0.378-0.156s-0.278 0.056-0.378 0.156l0.756 0.756zM9.618 21.14c-0.1 0.1-0.156 0.236-0.156 0.378s0.056 0.278 0.156 0.378c0.1 0.1 0.236 0.157 0.378 0.157s0.278-0.056 0.378-0.157l-0.756-0.756z"></path>
</symbol>
<symbol id="icon-teleg-s" viewBox="0 0 41 32">
<path d="M7.676 19.151l-6.677-2.057c-1.276-0.393-1.348-2.080-0.111-2.57l36.106-14.308c2.113-0.837 4.365 0.879 3.958 3.018l-5.039 26.507c-0.372 1.956-2.743 2.899-4.473 1.779l-12.866-8.33c-1.133-0.734-1.272-2.27-0.288-3.176l12.211-11.243c0.313-0.288-0.079-0.758-0.446-0.535l-16.863 10.243c-1.639 0.996-3.662 1.242-5.513 0.672z"></path>
</symbol>
</defs>
</svg>
