<?xml version="1.0" standalone="no"?>
<!DOCTYPE svg PUBLIC "-//W3C//DTD SVG 20010904//EN"
 "http://www.w3.org/TR/2001/REC-SVG-20010904/DTD/svg10.dtd">
<svg version="1.0" xmlns="http://www.w3.org/2000/svg"
 width="104.000000pt" height="104.000000pt" viewBox="0 0 104.000000 104.000000"
 preserveAspectRatio="xMidYMid meet">

<g transform="translate(0.000000,104.000000) scale(0.100000,-0.100000)"
fill="#2c3030" stroke="none">
<path d="M370 997 c-163 -56 -278 -169 -330 -327 -18 -55 -21 -83 -18 -175 3
-102 6 -116 39 -185 140 -294 499 -386 758 -195 122 90 190 218 199 371 6 110
-8 174 -56 267 -110 212 -371 320 -592 244z m394 -273 c9 -8 16 -16 16 -17 0
-1 -18 -95 -39 -210 -38 -201 -49 -237 -76 -237 -25 0 -225 139 -225 157 0 9
42 57 93 106 97 94 93 94 -54 1 -129 -82 -145 -86 -234 -55 -92 32 -79 42 210
162 143 59 268 107 277 108 9 1 24 -6 32 -15z"/>
</g>
</svg>
