<?xml version="1.0" standalone="no"?>
<!DOCTYPE svg PUBLIC "-//W3C//DTD SVG 20010904//EN"
 "http://www.w3.org/TR/2001/REC-SVG-20010904/DTD/svg10.dtd">
<svg version="1.0" xmlns="http://www.w3.org/2000/svg"
 width="101.000000pt" height="101.000000pt" viewBox="0 0 101.000000 101.000000"
 preserveAspectRatio="xMidYMid meet">

<g transform="translate(0.000000,101.000000) scale(0.100000,-0.100000)"
fill="#868686" stroke="none">
<path d="M381 984 c-218 -58 -371 -256 -371 -479 0 -246 176 -449 422 -487
263 -40 516 149 558 416 46 296 -190 568 -490 565 -36 0 -89 -7 -119 -15z
m287 -189 c113 -34 157 -111 157 -275 0 -123 -17 -180 -66 -225 -47 -42 -118
-64 -224 -69 -77 -4 -80 -5 -110 -40 -18 -22 -39 -36 -52 -36 -21 0 -23 5 -23
48 -1 45 -3 48 -43 68 -85 42 -128 173 -107 324 17 123 50 166 154 202 67 23
241 24 314 3z"/>
<path d="M367 746 c-88 -32 -119 -94 -120 -236 0 -115 20 -164 84 -199 39 -22
39 -23 39 -84 l1 -62 52 57 52 56 65 1 c120 3 178 28 213 95 31 59 32 232 1
291 -33 66 -93 89 -234 93 -80 1 -127 -2 -153 -12z m234 -68 c27 -15 47 -37
64 -72 28 -56 33 -106 11 -106 -16 0 -26 21 -26 57 0 36 -58 90 -114 105 -25
7 -46 18 -46 25 0 21 68 15 111 -9z m-179 -25 c34 -39 41 -63 24 -82 -9 -10
-16 -25 -16 -34 0 -22 46 -75 82 -93 27 -14 32 -14 47 0 25 23 46 20 83 -13
31 -27 32 -30 18 -55 -27 -52 -85 -42 -187 33 -44 32 -101 109 -127 173 -14
34 -14 38 5 62 24 30 50 33 71 9z m160 -60 c21 -19 24 -63 4 -63 -7 0 -16 9
-19 21 -3 11 -15 23 -26 26 -12 3 -21 12 -21 19 0 19 40 18 62 -3z"/>
</g>
</svg>
