<?xml version="1.0" standalone="no"?>
<!DOCTYPE svg PUBLIC "-//W3C//DTD SVG 20010904//EN"
 "http://www.w3.org/TR/2001/REC-SVG-20010904/DTD/svg10.dtd">
<svg version="1.0" xmlns="http://www.w3.org/2000/svg"
 width="118.000000pt" height="118.000000pt" viewBox="0 0 118.000000 118.000000"
 preserveAspectRatio="xMidYMid meet">

<g transform="translate(0.000000,118.000000) scale(0.100000,-0.100000)"
fill="#868686" stroke="none">
<path d="M475 1160 c-110 -22 -213 -78 -295 -160 -104 -104 -158 -226 -167
-375 -10 -170 47 -317 171 -441 117 -117 241 -169 406 -169 165 0 289 52 406
169 117 117 169 241 169 406 0 165 -52 289 -169 406 -139 139 -335 201 -521
164z m242 -232 c77 -29 152 -100 189 -181 25 -53 29 -75 29 -147 0 -72 -4 -93
-27 -140 -32 -65 -48 -85 -111 -133 -86 -66 -226 -86 -327 -48 l-51 19 -90
-30 c-50 -17 -93 -27 -97 -23 -4 3 8 47 25 96 l32 89 -21 46 c-97 220 76 473
324 474 45 0 86 -7 125 -22z"/>
<path d="M545 873 c-94 -22 -163 -76 -201 -158 -34 -71 -33 -163 1 -231 24
-48 24 -53 11 -92 -9 -23 -14 -42 -13 -42 1 0 22 6 47 14 40 12 48 11 90 -8
71 -32 170 -29 239 9 91 50 142 137 143 240 0 107 -57 197 -153 243 -45 21
-128 34 -164 25z m-14 -149 c19 -43 19 -47 4 -70 -16 -24 -15 -27 2 -46 10
-12 36 -34 58 -50 l40 -29 22 27 22 28 50 -24 c42 -19 51 -28 51 -49 0 -42
-37 -71 -89 -71 -122 0 -281 139 -281 245 0 56 22 85 66 85 32 0 37 -4 55 -46z"/>
</g>
</svg>
