<?xml version="1.0" standalone="no"?>
<!DOCTYPE svg PUBLIC "-//W3C//DTD SVG 20010904//EN"
 "http://www.w3.org/TR/2001/REC-SVG-20010904/DTD/svg10.dtd">
<svg version="1.0" xmlns="http://www.w3.org/2000/svg"
 width="192.000000pt" height="191.000000pt" viewBox="0 0 192.000000 191.000000"
 preserveAspectRatio="xMidYMid meet">

<g transform="translate(0.000000,191.000000) scale(0.100000,-0.100000)"
fill="#868686" stroke="none">
<path d="M870 1884 c-426 -53 -743 -349 -829 -772 -25 -122 -9 -326 35 -460
38 -116 148 -292 223 -360 158 -143 252 -196 441 -250 79 -23 373 -22 450 1
30 9 66 19 79 23 43 13 162 74 220 113 270 184 431 513 406 833 -18 233 -106
429 -264 589 -141 142 -300 230 -488 268 -60 12 -222 21 -273 15z m40 -606
c52 -70 100 -128 107 -128 6 0 62 59 124 130 l112 130 68 0 c37 0 70 -3 72 -7
3 -5 -56 -78 -130 -163 -74 -85 -143 -166 -153 -180 l-18 -25 179 -240 c98
-132 179 -246 179 -252 0 -10 -35 -13 -143 -13 l-143 0 -90 117 c-49 64 -97
129 -107 145 -11 15 -25 28 -32 28 -7 0 -34 -26 -61 -57 -27 -32 -51 -60 -54
-63 -3 -3 -35 -39 -70 -80 -35 -41 -68 -78 -74 -82 -6 -4 -42 -8 -79 -8 -88 0
-96 -17 118 231 49 57 100 115 112 129 13 14 23 32 23 40 0 13 -243 346 -316
433 -13 16 -24 33 -24 38 0 6 61 8 152 7 l152 -3 96 -127z"/>
<path d="M696 1308 c8 -14 266 -360 274 -368 3 -3 57 -74 120 -157 107 -144
116 -153 148 -153 24 0 31 4 26 13 -8 13 -74 106 -87 122 -5 6 -99 132 -210
280 -198 265 -203 270 -241 273 -29 3 -36 0 -30 -10z"/>
</g>
</svg>
